<?xml version="1.0" encoding="UTF-8"?>
<svg xmlns="http://www.w3.org/2000/svg" xmlns:xlink="http://www.w3.org/1999/xlink" width="1pt" height="1pt" viewBox="0 0 1 1" version="1.1">
<g id="surface1601">
<rect x="0" y="0" width="1" height="1" style="fill:rgb(93.333333%,91.372549%,91.372549%);fill-opacity:1;stroke:none;"/>
<path style="fill-rule:nonzero;fill:rgb(54.509804%,53.72549%,53.72549%);fill-opacity:0.301961;stroke-width:2;stroke-linecap:butt;stroke-linejoin:miter;stroke:rgb(54.509804%,53.72549%,53.72549%);stroke-opacity:0.301961;stroke-miterlimit:10;" d="M -94.359443 34.256144 L -97.741143 22.804948 L 1.914569 6.782757 L 2.964049 18.44385 Z M -94.359443 34.256144 " transform="matrix(-0.000149528,0.00166145,-0.00166145,-0.000149528,0.738118,0.712677)"/>
<path style="fill-rule:nonzero;fill:rgb(54.509804%,53.72549%,53.72549%);fill-opacity:0.301961;stroke-width:2;stroke-linecap:butt;stroke-linejoin:miter;stroke:rgb(54.509804%,53.72549%,53.72549%);stroke-opacity:0.301961;stroke-miterlimit:10;" d="M -98.790624 11.143855 L -102.172323 -0.307342 L -2.726508 -18.661752 L -1.677027 -7.000659 Z M -98.790624 11.143855 " transform="matrix(-0.000149528,0.00166145,-0.00166145,-0.000149528,0.738118,0.712677)"/>
<path style="fill-rule:nonzero;fill:rgb(54.509804%,53.72549%,53.72549%);fill-opacity:0.301961;stroke-width:2;stroke-linecap:butt;stroke-linejoin:miter;stroke:rgb(54.509804%,53.72549%,53.72549%);stroke-opacity:0.301961;stroke-miterlimit:10;" d="M 2.964049 18.44385 L 1.704672 4.450538 L 99.028165 -11.361757 L 102.409865 0.0894402 Z M 2.964049 18.44385 " transform="matrix(-0.000149528,0.00166145,-0.00166145,-0.000149528,0.738118,0.712677)"/>
<path style="fill-rule:nonzero;fill:rgb(54.509804%,53.72549%,53.72549%);fill-opacity:0.301961;stroke-width:2;stroke-linecap:butt;stroke-linejoin:miter;stroke:rgb(54.509804%,53.72549%,53.72549%);stroke-opacity:0.301961;stroke-miterlimit:10;" d="M -1.677027 -7.000659 L -2.726508 -18.661752 L 94.596985 -34.474046 L 97.978685 -23.02285 Z M -1.677027 -7.000659 " transform="matrix(-0.000149528,0.00166145,-0.00166145,-0.000149528,0.738118,0.712677)"/>
<path style="fill-rule:nonzero;fill:rgb(54.509804%,53.72549%,53.72549%);fill-opacity:0.301961;stroke-width:2;stroke-linecap:butt;stroke-linejoin:miter;stroke:rgb(54.509804%,53.72549%,53.72549%);stroke-opacity:0.301961;stroke-miterlimit:10;" d="M 102.409865 0.0894402 L 99.028165 -11.361757 L 198.683877 -27.383947 L 199.733358 -15.722854 Z M 102.409865 0.0894402 " transform="matrix(-0.000149528,0.00166145,-0.00166145,-0.000149528,0.738118,0.712677)"/>
<path style="fill-rule:nonzero;fill:rgb(54.509804%,53.72549%,53.72549%);fill-opacity:0.301961;stroke-width:2;stroke-linecap:butt;stroke-linejoin:miter;stroke:rgb(54.509804%,53.72549%,53.72549%);stroke-opacity:0.301961;stroke-miterlimit:10;" d="M 97.978685 -23.02285 L 94.596985 -34.474046 L 194.252697 -50.496237 L 195.302177 -38.835144 Z M 97.978685 -23.02285 " transform="matrix(-0.000149528,0.00166145,-0.00166145,-0.000149528,0.738118,0.712677)"/>
<path style="fill:none;stroke-width:2;stroke-linecap:butt;stroke-linejoin:miter;stroke:rgb(54.509804%,53.72549%,53.72549%);stroke-opacity:0.301961;stroke-miterlimit:10;" d="M 195.302177 -38.835144 L 194.252697 -50.496237 L 293.908408 -66.518428 L 294.957889 -54.857335 Z M 195.302177 -38.835144 " transform="matrix(-0.000149528,0.00166145,-0.00166145,-0.000149528,0.738118,0.712677)"/>
<path style="fill:none;stroke-width:2;stroke-linecap:butt;stroke-linejoin:miter;stroke:rgb(0%,0%,100%);stroke-opacity:1;stroke-miterlimit:10;" d="M 11.769531 -27.304688 L 4.257813 -8.769531 "/>
</g>
</svg>
