<?xml version="1.0" encoding="UTF-8"?>
<svg xmlns="http://www.w3.org/2000/svg" xmlns:xlink="http://www.w3.org/1999/xlink" width="415pt" height="800pt" viewBox="0 0 415 800" version="1.1">
<g id="surface120">
<path style="fill:none;stroke-width:4;stroke-linecap:round;stroke-linejoin:miter;stroke:rgb(64.705882%,16.470588%,16.470588%);stroke-opacity:1;stroke-dasharray:4,20;stroke-miterlimit:10;" d="M -0.00217454 375.998232 L -348.001742 375.998232 C -359.045319 375.998232 -368.001341 367.050397 -368.001341 355.998633 L -368.001341 -355.996907 C -368.001341 -367.04867 -359.045319 -375.996505 -348.001742 -375.996505 L 347.997393 -375.996505 C 359.049157 -375.996505 367.996992 -367.04867 367.996992 -355.996907 L 367.996992 355.998633 C 367.996992 367.050397 359.049157 375.998232 347.997393 375.998232 Z M -0.00217454 375.998232 " transform="matrix(0.477158,0,0,0.477158,207.563538,203.269119)"/>
<rect x="0" y="0" width="415" height="800" style="fill:rgb(100%,92.156863%,80.392157%);fill-opacity:0.501961;stroke:none;"/>
<path style=" stroke:none;fill-rule:nonzero;fill:rgb(0%,0%,54.509804%);fill-opacity:1;" d="M 207.859375 204.222656 L 207.8125 203.828125 C 207.902344 203.851563 207.984375 203.863281 208.050781 203.867188 C 208.144531 203.863281 208.21875 203.847656 208.277344 203.820313 C 208.332031 203.789063 208.378906 203.746094 208.414063 203.6875 C 208.441406 203.644531 208.484375 203.542969 208.542969 203.378906 C 208.550781 203.351563 208.5625 203.316406 208.578125 203.273438 L 207.640625 200.792969 L 208.09375 200.792969 L 208.605469 202.226563 C 208.671875 202.410156 208.730469 202.605469 208.785156 202.800781 C 208.832031 202.609375 208.890625 202.421875 208.960938 202.238281 L 209.488281 200.792969 L 209.910156 200.792969 L 208.964844 203.308594 C 208.863281 203.582031 208.785156 203.769531 208.730469 203.871094 C 208.652344 204.011719 208.566406 204.113281 208.472656 204.175781 C 208.375 204.238281 208.261719 204.273438 208.128906 204.273438 C 208.046875 204.273438 207.957031 204.253906 207.859375 204.222656 Z M 207.859375 204.222656 "/>
<path style=" stroke:none;fill-rule:nonzero;fill:rgb(0%,0%,54.509804%);fill-opacity:1;" d="M 211.578125 201.585938 C 211.578125 201.179688 211.617188 200.855469 211.703125 200.609375 C 211.785156 200.363281 211.910156 200.175781 212.074219 200.039063 C 212.238281 199.910156 212.441406 199.839844 212.691406 199.839844 C 212.875 199.839844 213.035156 199.878906 213.175781 199.953125 C 213.3125 200.027344 213.425781 200.132813 213.515625 200.269531 C 213.605469 200.410156 213.675781 200.578125 213.730469 200.777344 C 213.78125 200.976563 213.804688 201.246094 213.804688 201.585938 C 213.804688 201.988281 213.761719 202.3125 213.683594 202.554688 C 213.597656 202.804688 213.476563 202.992188 213.3125 203.125 C 213.148438 203.261719 212.941406 203.324219 212.691406 203.328125 C 212.359375 203.324219 212.105469 203.207031 211.917969 202.972656 C 211.691406 202.6875 211.578125 202.226563 211.578125 201.585938 Z M 212.011719 201.585938 C 212.007813 202.148438 212.074219 202.519531 212.207031 202.703125 C 212.335938 202.890625 212.5 202.984375 212.691406 202.980469 C 212.882813 202.984375 213.046875 202.890625 213.175781 202.703125 C 213.308594 202.519531 213.375 202.144531 213.375 201.585938 C 213.375 201.023438 213.308594 200.648438 213.175781 200.464844 C 213.046875 200.28125 212.882813 200.1875 212.6875 200.1875 C 212.492188 200.1875 212.339844 200.269531 212.226563 200.433594 C 212.082031 200.640625 212.007813 201.023438 212.011719 201.585938 Z M 212.011719 201.585938 "/>
<path style=" stroke:none;fill-rule:nonzero;fill:rgb(0%,0%,54.509804%);fill-opacity:1;" d="M 207.859375 347.367188 L 207.8125 346.976563 C 207.902344 347 207.984375 347.011719 208.050781 347.011719 C 208.144531 347.011719 208.21875 346.996094 208.277344 346.964844 C 208.332031 346.933594 208.378906 346.890625 208.414063 346.835938 C 208.441406 346.792969 208.484375 346.6875 208.542969 346.523438 C 208.550781 346.5 208.5625 346.464844 208.578125 346.421875 L 207.640625 343.941406 L 208.09375 343.941406 L 208.605469 345.375 C 208.671875 345.558594 208.730469 345.75 208.785156 345.949219 C 208.832031 345.757813 208.890625 345.570313 208.960938 345.382813 L 209.488281 343.941406 L 209.910156 343.941406 L 208.964844 346.457031 C 208.863281 346.726563 208.785156 346.917969 208.730469 347.019531 C 208.652344 347.160156 208.566406 347.257813 208.472656 347.324219 C 208.375 347.386719 208.261719 347.417969 208.128906 347.421875 C 208.046875 347.417969 207.957031 347.402344 207.859375 347.367188 Z M 207.859375 347.367188 "/>
<path style=" stroke:none;fill-rule:nonzero;fill:rgb(0%,0%,54.509804%);fill-opacity:1;" d="M 211.582031 345.515625 L 212 345.457031 C 212.046875 345.699219 212.128906 345.871094 212.246094 345.972656 C 212.359375 346.078125 212.503906 346.132813 212.667969 346.128906 C 212.863281 346.132813 213.03125 346.0625 213.167969 345.925781 C 213.300781 345.789063 213.371094 345.621094 213.375 345.417969 C 213.371094 345.226563 213.308594 345.070313 213.183594 344.941406 C 213.054688 344.820313 212.894531 344.753906 212.703125 344.753906 C 212.621094 344.753906 212.523438 344.769531 212.40625 344.796875 L 212.453125 344.429688 C 212.480469 344.433594 212.503906 344.4375 212.523438 344.4375 C 212.699219 344.4375 212.859375 344.390625 213.003906 344.296875 C 213.144531 344.203125 213.214844 344.0625 213.21875 343.863281 C 213.214844 343.714844 213.164063 343.585938 213.0625 343.484375 C 212.957031 343.382813 212.824219 343.332031 212.660156 343.332031 C 212.496094 343.332031 212.359375 343.382813 212.25 343.488281 C 212.140625 343.589844 212.074219 343.742188 212.042969 343.945313 L 211.625 343.871094 C 211.671875 343.59375 211.789063 343.375 211.972656 343.21875 C 212.152344 343.066406 212.378906 342.988281 212.648438 342.988281 C 212.835938 342.988281 213.007813 343.03125 213.164063 343.109375 C 213.320313 343.191406 213.441406 343.296875 213.527344 343.433594 C 213.609375 343.574219 213.652344 343.722656 213.652344 343.875 C 213.652344 344.023438 213.609375 344.15625 213.53125 344.277344 C 213.449219 344.398438 213.332031 344.496094 213.179688 344.566406 C 213.378906 344.617188 213.539063 344.710938 213.652344 344.855469 C 213.761719 345.003906 213.820313 345.1875 213.820313 345.40625 C 213.820313 345.707031 213.707031 345.960938 213.492188 346.167969 C 213.273438 346.375 213 346.472656 212.667969 346.476563 C 212.367188 346.472656 212.117188 346.386719 211.917969 346.210938 C 211.71875 346.03125 211.609375 345.800781 211.582031 345.515625 Z M 211.582031 345.515625 "/>
<path style=" stroke:none;fill-rule:nonzero;fill:rgb(0%,0%,54.509804%);fill-opacity:1;" d="M 214.441406 344.730469 C 214.441406 344.328125 214.480469 344.003906 214.566406 343.757813 C 214.648438 343.511719 214.773438 343.324219 214.9375 343.1875 C 215.101563 343.054688 215.304688 342.988281 215.554688 342.988281 C 215.738281 342.988281 215.898438 343.027344 216.035156 343.097656 C 216.175781 343.171875 216.289063 343.28125 216.378906 343.417969 C 216.46875 343.558594 216.539063 343.726563 216.59375 343.925781 C 216.644531 344.125 216.667969 344.394531 216.667969 344.730469 C 216.667969 345.132813 216.625 345.457031 216.546875 345.703125 C 216.460938 345.949219 216.339844 346.140625 216.175781 346.273438 C 216.011719 346.40625 215.804688 346.472656 215.554688 346.472656 C 215.222656 346.472656 214.96875 346.355469 214.78125 346.121094 C 214.554688 345.835938 214.441406 345.375 214.441406 344.730469 Z M 214.875 344.730469 C 214.871094 345.292969 214.9375 345.667969 215.070313 345.851563 C 215.199219 346.039063 215.363281 346.132813 215.554688 346.128906 C 215.746094 346.132813 215.910156 346.039063 216.039063 345.851563 C 216.171875 345.664063 216.234375 345.292969 216.238281 344.730469 C 216.234375 344.171875 216.171875 343.796875 216.039063 343.613281 C 215.910156 343.429688 215.746094 343.335938 215.550781 343.332031 C 215.355469 343.335938 215.203125 343.417969 215.089844 343.578125 C 214.945313 343.789063 214.871094 344.171875 214.875 344.730469 Z M 214.875 344.730469 "/>
<path style=" stroke:none;fill-rule:nonzero;fill:rgb(0%,0%,54.509804%);fill-opacity:1;" d="M 217.304688 344.730469 C 217.300781 344.328125 217.34375 344.003906 217.429688 343.757813 C 217.511719 343.511719 217.636719 343.324219 217.800781 343.1875 C 217.964844 343.054688 218.167969 342.988281 218.417969 342.988281 C 218.601563 342.988281 218.761719 343.027344 218.898438 343.097656 C 219.039063 343.171875 219.152344 343.28125 219.242188 343.417969 C 219.332031 343.558594 219.402344 343.726563 219.457031 343.925781 C 219.503906 344.125 219.53125 344.394531 219.53125 344.730469 C 219.53125 345.132813 219.488281 345.457031 219.410156 345.703125 C 219.324219 345.949219 219.203125 346.140625 219.039063 346.273438 C 218.875 346.40625 218.667969 346.472656 218.417969 346.472656 C 218.085938 346.472656 217.828125 346.355469 217.644531 346.121094 C 217.417969 345.835938 217.300781 345.375 217.304688 344.730469 Z M 217.738281 344.730469 C 217.734375 345.292969 217.800781 345.667969 217.933594 345.851563 C 218.0625 346.039063 218.226563 346.132813 218.417969 346.128906 C 218.609375 346.132813 218.769531 346.039063 218.902344 345.851563 C 219.035156 345.664063 219.097656 345.292969 219.101563 344.730469 C 219.097656 344.171875 219.035156 343.796875 218.902344 343.613281 C 218.769531 343.429688 218.605469 343.335938 218.414063 343.332031 C 218.21875 343.335938 218.066406 343.417969 217.953125 343.578125 C 217.808594 343.789063 217.734375 344.171875 217.738281 344.730469 Z M 217.738281 344.730469 "/>
<path style=" stroke:none;fill-rule:nonzero;fill:rgb(0%,0%,54.509804%);fill-opacity:1;" d="M 207.859375 490.515625 L 207.8125 490.125 C 207.902344 490.148438 207.984375 490.160156 208.050781 490.160156 C 208.144531 490.160156 208.21875 490.144531 208.277344 490.113281 C 208.332031 490.082031 208.378906 490.039063 208.414063 489.984375 C 208.441406 489.941406 208.484375 489.835938 208.542969 489.671875 C 208.550781 489.648438 208.5625 489.613281 208.578125 489.566406 L 207.640625 487.089844 L 208.09375 487.089844 L 208.605469 488.523438 C 208.671875 488.707031 208.730469 488.898438 208.785156 489.097656 C 208.832031 488.90625 208.890625 488.71875 208.960938 488.53125 L 209.488281 487.089844 L 209.910156 487.089844 L 208.964844 489.605469 C 208.863281 489.875 208.785156 490.0625 208.730469 490.167969 C 208.652344 490.304688 208.566406 490.40625 208.472656 490.472656 C 208.375 490.535156 208.261719 490.566406 208.128906 490.570313 C 208.046875 490.566406 207.957031 490.550781 207.859375 490.515625 Z M 207.859375 490.515625 "/>
<path style=" stroke:none;fill-rule:nonzero;fill:rgb(0%,0%,54.509804%);fill-opacity:1;" d="M 213.753906 486.984375 L 213.339844 487.019531 C 213.300781 486.855469 213.246094 486.734375 213.179688 486.65625 C 213.0625 486.539063 212.925781 486.480469 212.761719 486.480469 C 212.625 486.480469 212.507813 486.519531 212.40625 486.589844 C 212.273438 486.6875 212.167969 486.828125 212.09375 487.011719 C 212.015625 487.199219 211.976563 487.460938 211.976563 487.800781 C 212.074219 487.648438 212.199219 487.535156 212.347656 487.460938 C 212.492188 487.386719 212.644531 487.351563 212.808594 487.347656 C 213.085938 487.351563 213.324219 487.453125 213.519531 487.65625 C 213.714844 487.863281 213.8125 488.128906 213.816406 488.453125 C 213.8125 488.671875 213.765625 488.871094 213.675781 489.054688 C 213.582031 489.238281 213.457031 489.378906 213.296875 489.476563 C 213.132813 489.574219 212.949219 489.621094 212.746094 489.621094 C 212.394531 489.621094 212.109375 489.492188 211.890625 489.238281 C 211.667969 488.980469 211.558594 488.558594 211.558594 487.964844 C 211.558594 487.304688 211.679688 486.824219 211.925781 486.527344 C 212.136719 486.265625 212.425781 486.136719 212.785156 486.132813 C 213.050781 486.136719 213.273438 486.210938 213.445313 486.359375 C 213.617188 486.511719 213.71875 486.71875 213.753906 486.984375 Z M 212.042969 488.457031 C 212.039063 488.601563 212.070313 488.742188 212.132813 488.871094 C 212.195313 489.007813 212.277344 489.105469 212.390625 489.175781 C 212.5 489.246094 212.617188 489.277344 212.738281 489.277344 C 212.914063 489.277344 213.066406 489.207031 213.195313 489.0625 C 213.320313 488.921875 213.382813 488.726563 213.386719 488.480469 C 213.382813 488.246094 213.324219 488.058594 213.199219 487.921875 C 213.070313 487.789063 212.914063 487.71875 212.722656 487.71875 C 212.53125 487.71875 212.371094 487.789063 212.238281 487.921875 C 212.105469 488.058594 212.039063 488.238281 212.042969 488.457031 Z M 212.042969 488.457031 "/>
<path style=" stroke:none;fill-rule:nonzero;fill:rgb(0%,0%,54.509804%);fill-opacity:1;" d="M 214.441406 487.878906 C 214.441406 487.476563 214.480469 487.152344 214.566406 486.902344 C 214.648438 486.660156 214.773438 486.46875 214.9375 486.335938 C 215.101563 486.203125 215.304688 486.136719 215.554688 486.132813 C 215.738281 486.136719 215.898438 486.171875 216.035156 486.246094 C 216.175781 486.320313 216.289063 486.425781 216.378906 486.566406 C 216.46875 486.703125 216.539063 486.875 216.59375 487.070313 C 216.644531 487.273438 216.667969 487.542969 216.667969 487.878906 C 216.667969 488.28125 216.625 488.605469 216.546875 488.851563 C 216.460938 489.097656 216.339844 489.289063 216.175781 489.421875 C 216.011719 489.554688 215.804688 489.621094 215.554688 489.621094 C 215.222656 489.621094 214.96875 489.503906 214.78125 489.265625 C 214.554688 488.984375 214.441406 488.523438 214.441406 487.878906 Z M 214.875 487.878906 C 214.871094 488.441406 214.9375 488.816406 215.070313 489 C 215.199219 489.1875 215.363281 489.277344 215.554688 489.277344 C 215.746094 489.277344 215.910156 489.1875 216.039063 488.996094 C 216.171875 488.8125 216.234375 488.441406 216.238281 487.878906 C 216.234375 487.316406 216.171875 486.945313 216.039063 486.757813 C 215.910156 486.574219 215.746094 486.484375 215.550781 486.480469 C 215.355469 486.484375 215.203125 486.566406 215.089844 486.726563 C 214.945313 486.9375 214.871094 487.320313 214.875 487.878906 Z M 214.875 487.878906 "/>
<path style=" stroke:none;fill-rule:nonzero;fill:rgb(0%,0%,54.509804%);fill-opacity:1;" d="M 217.304688 487.878906 C 217.300781 487.476563 217.34375 487.152344 217.429688 486.902344 C 217.511719 486.660156 217.636719 486.46875 217.800781 486.335938 C 217.964844 486.203125 218.167969 486.136719 218.417969 486.132813 C 218.601563 486.136719 218.761719 486.171875 218.898438 486.246094 C 219.039063 486.320313 219.152344 486.425781 219.242188 486.566406 C 219.332031 486.703125 219.402344 486.875 219.457031 487.070313 C 219.503906 487.273438 219.53125 487.542969 219.53125 487.878906 C 219.53125 488.28125 219.488281 488.605469 219.410156 488.851563 C 219.324219 489.097656 219.203125 489.289063 219.039063 489.421875 C 218.875 489.554688 218.667969 489.621094 218.417969 489.621094 C 218.085938 489.621094 217.828125 489.503906 217.644531 489.265625 C 217.417969 488.984375 217.300781 488.523438 217.304688 487.878906 Z M 217.738281 487.878906 C 217.734375 488.441406 217.800781 488.816406 217.933594 489 C 218.0625 489.1875 218.226563 489.277344 218.417969 489.277344 C 218.609375 489.277344 218.769531 489.1875 218.902344 488.996094 C 219.035156 488.8125 219.097656 488.441406 219.101563 487.878906 C 219.097656 487.316406 219.035156 486.945313 218.902344 486.757813 C 218.769531 486.574219 218.605469 486.484375 218.414063 486.480469 C 218.21875 486.484375 218.066406 486.566406 217.953125 486.726563 C 217.808594 486.9375 217.734375 487.320313 217.738281 487.878906 Z M 217.738281 487.878906 "/>
<path style=" stroke:none;fill-rule:nonzero;fill:rgb(0%,0%,54.509804%);fill-opacity:1;" d="M 207.859375 633.664063 L 207.8125 633.269531 C 207.902344 633.292969 207.984375 633.304688 208.050781 633.308594 C 208.144531 633.304688 208.21875 633.289063 208.277344 633.261719 C 208.332031 633.230469 208.378906 633.1875 208.414063 633.128906 C 208.441406 633.085938 208.484375 632.984375 208.542969 632.820313 C 208.550781 632.796875 208.5625 632.761719 208.578125 632.714844 L 207.640625 630.234375 L 208.09375 630.234375 L 208.605469 631.667969 C 208.671875 631.855469 208.730469 632.046875 208.785156 632.242188 C 208.832031 632.054688 208.890625 631.863281 208.960938 631.679688 L 209.488281 630.234375 L 209.910156 630.234375 L 208.964844 632.753906 C 208.863281 633.023438 208.785156 633.210938 208.730469 633.316406 C 208.652344 633.453125 208.566406 633.554688 208.472656 633.617188 C 208.375 633.683594 208.261719 633.714844 208.128906 633.714844 C 208.046875 633.714844 207.957031 633.699219 207.859375 633.664063 Z M 207.859375 633.664063 "/>
<path style=" stroke:none;fill-rule:nonzero;fill:rgb(0%,0%,54.509804%);fill-opacity:1;" d="M 211.640625 631.921875 L 212.042969 631.882813 C 212.078125 632.074219 212.144531 632.210938 212.238281 632.296875 C 212.335938 632.382813 212.460938 632.425781 212.609375 632.425781 C 212.738281 632.425781 212.851563 632.394531 212.949219 632.335938 C 213.046875 632.277344 213.125 632.199219 213.1875 632.101563 C 213.25 632 213.300781 631.867188 213.34375 631.699219 C 213.386719 631.53125 213.40625 631.363281 213.410156 631.1875 C 213.40625 631.171875 213.40625 631.144531 213.40625 631.105469 C 213.320313 631.238281 213.207031 631.347656 213.0625 631.429688 C 212.914063 631.511719 212.757813 631.554688 212.589844 631.554688 C 212.304688 631.554688 212.066406 631.453125 211.871094 631.246094 C 211.671875 631.042969 211.578125 630.769531 211.578125 630.433594 C 211.578125 630.089844 211.679688 629.8125 211.882813 629.597656 C 212.089844 629.390625 212.34375 629.285156 212.652344 629.28125 C 212.875 629.285156 213.078125 629.34375 213.261719 629.460938 C 213.445313 629.582031 213.585938 629.753906 213.679688 629.972656 C 213.777344 630.195313 213.824219 630.515625 213.824219 630.933594 C 213.824219 631.371094 213.777344 631.71875 213.683594 631.976563 C 213.585938 632.234375 213.445313 632.433594 213.257813 632.566406 C 213.074219 632.703125 212.851563 632.765625 212.601563 632.769531 C 212.332031 632.765625 212.113281 632.695313 211.949219 632.546875 C 211.777344 632.398438 211.675781 632.191406 211.640625 631.921875 Z M 213.359375 630.414063 C 213.355469 630.175781 213.292969 629.984375 213.167969 629.839844 C 213.039063 629.699219 212.882813 629.628906 212.703125 629.628906 C 212.515625 629.628906 212.355469 629.707031 212.21875 629.859375 C 212.078125 630.011719 212.007813 630.207031 212.011719 630.449219 C 212.007813 630.667969 212.074219 630.84375 212.207031 630.980469 C 212.335938 631.117188 212.5 631.183594 212.691406 631.183594 C 212.886719 631.183594 213.046875 631.117188 213.171875 630.980469 C 213.296875 630.84375 213.355469 630.65625 213.359375 630.414063 Z M 213.359375 630.414063 "/>
<path style=" stroke:none;fill-rule:nonzero;fill:rgb(0%,0%,54.509804%);fill-opacity:1;" d="M 214.441406 631.027344 C 214.441406 630.625 214.480469 630.300781 214.566406 630.050781 C 214.648438 629.808594 214.773438 629.617188 214.9375 629.484375 C 215.101563 629.351563 215.304688 629.285156 215.554688 629.28125 C 215.738281 629.285156 215.898438 629.320313 216.035156 629.394531 C 216.175781 629.46875 216.289063 629.574219 216.378906 629.710938 C 216.46875 629.851563 216.539063 630.023438 216.59375 630.21875 C 216.644531 630.421875 216.667969 630.6875 216.667969 631.027344 C 216.667969 631.429688 216.625 631.753906 216.546875 631.996094 C 216.460938 632.246094 216.339844 632.433594 216.175781 632.566406 C 216.011719 632.703125 215.804688 632.765625 215.554688 632.769531 C 215.222656 632.765625 214.96875 632.648438 214.78125 632.414063 C 214.554688 632.132813 214.441406 631.667969 214.441406 631.027344 Z M 214.875 631.027344 C 214.871094 631.589844 214.9375 631.960938 215.070313 632.148438 C 215.199219 632.332031 215.363281 632.425781 215.554688 632.425781 C 215.746094 632.425781 215.910156 632.332031 216.039063 632.144531 C 216.171875 631.960938 216.234375 631.585938 216.238281 631.027344 C 216.234375 630.464844 216.171875 630.09375 216.039063 629.90625 C 215.910156 629.722656 215.746094 629.628906 215.550781 629.628906 C 215.355469 629.628906 215.203125 629.710938 215.089844 629.875 C 214.945313 630.082031 214.871094 630.46875 214.875 631.027344 Z M 214.875 631.027344 "/>
<path style=" stroke:none;fill-rule:nonzero;fill:rgb(0%,0%,54.509804%);fill-opacity:1;" d="M 217.304688 631.027344 C 217.300781 630.625 217.34375 630.300781 217.429688 630.050781 C 217.511719 629.808594 217.636719 629.617188 217.800781 629.484375 C 217.964844 629.351563 218.167969 629.285156 218.417969 629.28125 C 218.601563 629.285156 218.761719 629.320313 218.898438 629.394531 C 219.039063 629.46875 219.152344 629.574219 219.242188 629.710938 C 219.332031 629.851563 219.402344 630.023438 219.457031 630.21875 C 219.503906 630.421875 219.53125 630.6875 219.53125 631.027344 C 219.53125 631.429688 219.488281 631.753906 219.410156 631.996094 C 219.324219 632.246094 219.203125 632.433594 219.039063 632.566406 C 218.875 632.703125 218.667969 632.765625 218.417969 632.769531 C 218.085938 632.765625 217.828125 632.648438 217.644531 632.414063 C 217.417969 632.132813 217.300781 631.667969 217.304688 631.027344 Z M 217.738281 631.027344 C 217.734375 631.589844 217.800781 631.960938 217.933594 632.148438 C 218.0625 632.332031 218.226563 632.425781 218.417969 632.425781 C 218.609375 632.425781 218.769531 632.332031 218.902344 632.144531 C 219.035156 631.960938 219.097656 631.585938 219.101563 631.027344 C 219.097656 630.464844 219.035156 630.09375 218.902344 629.90625 C 218.769531 629.722656 218.605469 629.628906 218.414063 629.628906 C 218.21875 629.628906 218.066406 629.710938 217.953125 629.875 C 217.808594 630.082031 217.734375 630.46875 217.738281 631.027344 Z M 217.738281 631.027344 "/>
<path style=" stroke:none;fill-rule:nonzero;fill:rgb(0%,0%,54.509804%);fill-opacity:1;" d="M 207.859375 776.8125 L 207.8125 776.417969 C 207.902344 776.441406 207.984375 776.453125 208.050781 776.457031 C 208.144531 776.453125 208.21875 776.4375 208.277344 776.410156 C 208.332031 776.375 208.378906 776.335938 208.414063 776.277344 C 208.441406 776.234375 208.484375 776.132813 208.542969 775.96875 C 208.550781 775.941406 208.5625 775.90625 208.578125 775.863281 L 207.640625 773.382813 L 208.09375 773.382813 L 208.605469 774.816406 C 208.671875 775 208.730469 775.191406 208.785156 775.390625 C 208.832031 775.199219 208.890625 775.011719 208.960938 774.824219 L 209.488281 773.382813 L 209.910156 773.382813 L 208.964844 775.898438 C 208.863281 776.171875 208.785156 776.359375 208.730469 776.460938 C 208.652344 776.601563 208.566406 776.703125 208.472656 776.765625 C 208.375 776.828125 208.261719 776.863281 208.128906 776.863281 C 208.046875 776.863281 207.957031 776.84375 207.859375 776.8125 Z M 207.859375 776.8125 "/>
<path style=" stroke:none;fill-rule:nonzero;fill:rgb(0%,0%,54.509804%);fill-opacity:1;" d="M 213.160156 775.859375 L 212.738281 775.859375 L 212.738281 773.1875 C 212.640625 773.28125 212.507813 773.378906 212.34375 773.476563 C 212.179688 773.574219 212.03125 773.644531 211.902344 773.691406 L 211.902344 773.285156 C 212.136719 773.175781 212.339844 773.042969 212.515625 772.886719 C 212.691406 772.730469 212.8125 772.578125 212.890625 772.429688 L 213.160156 772.429688 Z M 213.160156 775.859375 "/>
<path style=" stroke:none;fill-rule:nonzero;fill:rgb(0%,0%,54.509804%);fill-opacity:1;" d="M 216.644531 775.457031 L 216.644531 775.859375 L 214.390625 775.859375 C 214.386719 775.757813 214.398438 775.660156 214.4375 775.566406 C 214.492188 775.414063 214.585938 775.265625 214.714844 775.113281 C 214.839844 774.964844 215.023438 774.792969 215.261719 774.59375 C 215.632813 774.292969 215.882813 774.050781 216.015625 773.875 C 216.144531 773.695313 216.207031 773.527344 216.210938 773.367188 C 216.207031 773.203125 216.148438 773.0625 216.03125 772.949219 C 215.910156 772.835938 215.757813 772.777344 215.566406 772.777344 C 215.363281 772.777344 215.203125 772.839844 215.082031 772.957031 C 214.960938 773.082031 214.898438 773.25 214.898438 773.460938 L 214.46875 773.417969 C 214.496094 773.097656 214.605469 772.851563 214.800781 772.683594 C 214.992188 772.515625 215.25 772.429688 215.578125 772.429688 C 215.902344 772.429688 216.160156 772.523438 216.355469 772.703125 C 216.542969 772.882813 216.640625 773.109375 216.640625 773.378906 C 216.640625 773.515625 216.609375 773.648438 216.558594 773.78125 C 216.5 773.914063 216.40625 774.050781 216.277344 774.199219 C 216.148438 774.34375 215.933594 774.542969 215.632813 774.796875 C 215.378906 775.011719 215.214844 775.152344 215.148438 775.230469 C 215.074219 775.304688 215.015625 775.378906 214.96875 775.457031 Z M 216.644531 775.457031 "/>
<path style=" stroke:none;fill-rule:nonzero;fill:rgb(0%,0%,54.509804%);fill-opacity:1;" d="M 217.304688 774.171875 C 217.300781 773.769531 217.34375 773.445313 217.429688 773.199219 C 217.511719 772.953125 217.636719 772.765625 217.800781 772.628906 C 217.964844 772.5 218.167969 772.429688 218.417969 772.429688 C 218.601563 772.429688 218.761719 772.46875 218.898438 772.539063 C 219.039063 772.617188 219.152344 772.722656 219.242188 772.859375 C 219.332031 773 219.402344 773.167969 219.457031 773.367188 C 219.503906 773.566406 219.53125 773.835938 219.53125 774.171875 C 219.53125 774.578125 219.488281 774.902344 219.410156 775.144531 C 219.324219 775.394531 219.203125 775.582031 219.039063 775.714844 C 218.875 775.847656 218.667969 775.914063 218.417969 775.917969 C 218.085938 775.914063 217.828125 775.796875 217.644531 775.5625 C 217.417969 775.277344 217.300781 774.816406 217.304688 774.171875 Z M 217.738281 774.171875 C 217.734375 774.738281 217.800781 775.109375 217.933594 775.292969 C 218.0625 775.480469 218.226563 775.574219 218.417969 775.570313 C 218.609375 775.574219 218.769531 775.480469 218.902344 775.292969 C 219.035156 775.109375 219.097656 774.734375 219.101563 774.171875 C 219.097656 773.613281 219.035156 773.238281 218.902344 773.054688 C 218.769531 772.871094 218.605469 772.777344 218.414063 772.777344 C 218.21875 772.777344 218.066406 772.859375 217.953125 773.023438 C 217.808594 773.230469 217.734375 773.613281 217.738281 774.171875 Z M 217.738281 774.171875 "/>
<path style=" stroke:none;fill-rule:nonzero;fill:rgb(0%,0%,54.509804%);fill-opacity:1;" d="M 220.167969 774.171875 C 220.164063 773.769531 220.207031 773.445313 220.292969 773.199219 C 220.375 772.953125 220.5 772.765625 220.664063 772.628906 C 220.828125 772.5 221.03125 772.429688 221.28125 772.429688 C 221.460938 772.429688 221.621094 772.46875 221.761719 772.539063 C 221.902344 772.617188 222.015625 772.722656 222.105469 772.859375 C 222.195313 773 222.265625 773.167969 222.316406 773.367188 C 222.367188 773.566406 222.394531 773.835938 222.394531 774.171875 C 222.394531 774.578125 222.351563 774.902344 222.273438 775.144531 C 222.1875 775.394531 222.066406 775.582031 221.902344 775.714844 C 221.738281 775.847656 221.53125 775.914063 221.28125 775.917969 C 220.949219 775.914063 220.691406 775.796875 220.507813 775.5625 C 220.277344 775.277344 220.164063 774.816406 220.167969 774.171875 Z M 220.601563 774.171875 C 220.597656 774.738281 220.664063 775.109375 220.796875 775.292969 C 220.925781 775.480469 221.089844 775.574219 221.28125 775.570313 C 221.472656 775.574219 221.632813 775.480469 221.765625 775.292969 C 221.898438 775.109375 221.960938 774.734375 221.964844 774.171875 C 221.960938 773.613281 221.898438 773.238281 221.765625 773.054688 C 221.632813 772.871094 221.46875 772.777344 221.277344 772.777344 C 221.082031 772.777344 220.929688 772.859375 220.816406 773.023438 C 220.671875 773.230469 220.597656 773.613281 220.601563 774.171875 Z M 220.601563 774.171875 "/>
<path style="fill:none;stroke-width:8.382975;stroke-linecap:round;stroke-linejoin:miter;stroke:rgb(64.705882%,16.470588%,16.470588%);stroke-opacity:1;stroke-dasharray:8.382975,41.914879;stroke-miterlimit:10;" d="M -0.00217454 1200.001349 L -326.086505 1200.001349 C -349.237903 1200.001349 -368.001341 1181.237911 -368.001341 1158.086513 L -368.001341 -334.089855 C -368.001341 -357.233067 -349.237903 -375.996505 -326.086505 -375.996505 L 326.082155 -375.996505 C 349.233553 -375.996505 367.996992 -357.233067 367.996992 -334.089855 L 367.996992 1158.086513 C 367.996992 1181.237911 349.233553 1200.001349 326.082155 1200.001349 Z M -0.00217454 1200.001349 " transform="matrix(0.477158,0,0,0.477158,207.563538,203.269119)"/>
</g>
</svg>
