<?xml version="1.0" encoding="UTF-8"?>
<svg xmlns="http://www.w3.org/2000/svg" xmlns:xlink="http://www.w3.org/1999/xlink" width="800pt" height="781pt" viewBox="0 0 800 781" version="1.1">
<g id="surface146">
<path style="fill:none;stroke-width:4;stroke-linecap:round;stroke-linejoin:miter;stroke:rgb(64.705882%,16.470588%,16.470588%);stroke-opacity:1;stroke-dasharray:4,20;stroke-miterlimit:10;" d="M 0.00288823 375.998172 L -348.004083 375.998172 C -359.044455 375.998172 -368.001104 367.049926 -368.001104 356.001152 L -368.001104 -356.002005 C -368.001104 -367.050779 -359.044455 -375.999026 -348.004083 -375.999026 L 348.001457 -375.999026 C 359.050231 -375.999026 367.998478 -367.050779 367.998478 -356.002005 L 367.998478 356.001152 C 367.998478 367.049926 359.050231 375.998172 348.001457 375.998172 Z M 0.00288823 375.998172 " transform="matrix(0.464913,0,0,0.464913,596.947876,198.98262)"/>
<rect x="0" y="0" width="800" height="781" style="fill:rgb(100%,92.156863%,80.392157%);fill-opacity:0.501961;stroke:none;"/>
<path style=" stroke:none;fill-rule:nonzero;fill:rgb(0%,0%,54.509804%);fill-opacity:1;" d="M 597.238281 199.910156 L 597.191406 199.527344 C 597.277344 199.550781 597.355469 199.5625 597.421875 199.5625 C 597.515625 199.5625 597.585938 199.546875 597.644531 199.519531 C 597.695313 199.488281 597.742188 199.445313 597.777344 199.390625 C 597.800781 199.347656 597.84375 199.246094 597.902344 199.089844 C 597.910156 199.0625 597.917969 199.03125 597.9375 198.984375 L 597.023438 196.570313 L 597.464844 196.570313 L 597.964844 197.96875 C 598.027344 198.148438 598.085938 198.335938 598.140625 198.527344 C 598.183594 198.339844 598.242188 198.15625 598.308594 197.976563 L 598.820313 196.570313 L 599.234375 196.570313 L 598.3125 199.023438 C 598.214844 199.285156 598.136719 199.46875 598.085938 199.570313 C 598.011719 199.707031 597.925781 199.804688 597.835938 199.867188 C 597.738281 199.929688 597.628906 199.960938 597.5 199.960938 C 597.421875 199.960938 597.332031 199.941406 597.238281 199.910156 Z M 597.238281 199.910156 "/>
<path style=" stroke:none;fill-rule:nonzero;fill:rgb(0%,0%,54.509804%);fill-opacity:1;" d="M 600.859375 197.339844 C 600.859375 196.949219 600.898438 196.632813 600.980469 196.390625 C 601.0625 196.152344 601.183594 195.96875 601.34375 195.835938 C 601.503906 195.707031 601.703125 195.644531 601.945313 195.640625 C 602.121094 195.644531 602.277344 195.679688 602.414063 195.75 C 602.546875 195.824219 602.660156 195.925781 602.75 196.0625 C 602.835938 196.195313 602.90625 196.363281 602.957031 196.554688 C 603.003906 196.75 603.027344 197.011719 603.03125 197.339844 C 603.027344 197.734375 602.988281 198.050781 602.910156 198.285156 C 602.828125 198.527344 602.707031 198.714844 602.550781 198.84375 C 602.390625 198.972656 602.1875 199.035156 601.945313 199.039063 C 601.621094 199.035156 601.371094 198.921875 601.191406 198.695313 C 600.96875 198.417969 600.859375 197.96875 600.859375 197.339844 Z M 601.28125 197.339844 C 601.277344 197.890625 601.34375 198.253906 601.472656 198.433594 C 601.597656 198.613281 601.757813 198.703125 601.945313 198.703125 C 602.132813 198.703125 602.289063 198.613281 602.417969 198.429688 C 602.546875 198.25 602.609375 197.886719 602.609375 197.339844 C 602.609375 196.792969 602.546875 196.429688 602.417969 196.25 C 602.289063 196.070313 602.128906 195.980469 601.941406 195.980469 C 601.75 195.980469 601.601563 196.0625 601.492188 196.21875 C 601.351563 196.421875 601.277344 196.796875 601.28125 197.339844 Z M 601.28125 197.339844 "/>
<path style=" stroke:none;fill-rule:nonzero;fill:rgb(0%,0%,54.509804%);fill-opacity:1;" d="M 597.238281 339.382813 L 597.191406 339 C 597.277344 339.023438 597.355469 339.035156 597.421875 339.039063 C 597.515625 339.035156 597.585938 339.019531 597.644531 338.992188 C 597.695313 338.960938 597.742188 338.917969 597.777344 338.863281 C 597.800781 338.824219 597.84375 338.722656 597.902344 338.5625 C 597.910156 338.539063 597.917969 338.503906 597.9375 338.460938 L 597.023438 336.042969 L 597.464844 336.042969 L 597.964844 337.441406 C 598.027344 337.621094 598.085938 337.808594 598.140625 338 C 598.183594 337.816406 598.242188 337.632813 598.308594 337.449219 L 598.820313 336.042969 L 599.234375 336.042969 L 598.3125 338.496094 C 598.214844 338.761719 598.136719 338.941406 598.085938 339.046875 C 598.011719 339.179688 597.925781 339.277344 597.835938 339.339844 C 597.738281 339.402344 597.628906 339.433594 597.5 339.433594 C 597.421875 339.433594 597.332031 339.417969 597.238281 339.382813 Z M 597.238281 339.382813 "/>
<path style=" stroke:none;fill-rule:nonzero;fill:rgb(0%,0%,54.509804%);fill-opacity:1;" d="M 600.863281 337.578125 L 601.269531 337.523438 C 601.316406 337.757813 601.394531 337.925781 601.511719 338.023438 C 601.621094 338.128906 601.761719 338.179688 601.921875 338.175781 C 602.113281 338.179688 602.273438 338.113281 602.410156 337.976563 C 602.539063 337.84375 602.605469 337.679688 602.609375 337.484375 C 602.605469 337.296875 602.546875 337.144531 602.421875 337.019531 C 602.300781 336.898438 602.144531 336.839844 601.957031 336.835938 C 601.875 336.839844 601.78125 336.851563 601.667969 336.878906 L 601.714844 336.523438 C 601.742188 336.527344 601.761719 336.527344 601.777344 336.527344 C 601.953125 336.527344 602.109375 336.484375 602.25 336.390625 C 602.386719 336.300781 602.457031 336.160156 602.457031 335.96875 C 602.457031 335.824219 602.40625 335.699219 602.304688 335.601563 C 602.203125 335.5 602.074219 335.453125 601.914063 335.449219 C 601.753906 335.453125 601.621094 335.5 601.515625 335.601563 C 601.40625 335.703125 601.339844 335.851563 601.3125 336.050781 L 600.902344 335.976563 C 600.953125 335.707031 601.066406 335.496094 601.242188 335.34375 C 601.417969 335.191406 601.640625 335.117188 601.902344 335.113281 C 602.085938 335.117188 602.253906 335.15625 602.40625 335.234375 C 602.558594 335.3125 602.675781 335.417969 602.757813 335.550781 C 602.835938 335.6875 602.878906 335.832031 602.878906 335.980469 C 602.878906 336.125 602.839844 336.253906 602.761719 336.375 C 602.683594 336.492188 602.570313 336.585938 602.417969 336.65625 C 602.617188 336.703125 602.769531 336.792969 602.878906 336.9375 C 602.988281 337.078125 603.042969 337.257813 603.042969 337.472656 C 603.042969 337.765625 602.933594 338.011719 602.726563 338.214844 C 602.511719 338.414063 602.242188 338.511719 601.921875 338.515625 C 601.628906 338.511719 601.382813 338.425781 601.191406 338.253906 C 600.996094 338.082031 600.890625 337.855469 600.863281 337.578125 Z M 600.863281 337.578125 "/>
<path style=" stroke:none;fill-rule:nonzero;fill:rgb(0%,0%,54.509804%);fill-opacity:1;" d="M 603.648438 336.816406 C 603.648438 336.421875 603.6875 336.105469 603.769531 335.863281 C 603.851563 335.628906 603.972656 335.441406 604.132813 335.3125 C 604.292969 335.183594 604.492188 335.117188 604.734375 335.113281 C 604.910156 335.117188 605.066406 335.152344 605.203125 335.222656 C 605.339844 335.296875 605.449219 335.398438 605.539063 335.535156 C 605.625 335.671875 605.695313 335.835938 605.746094 336.027344 C 605.792969 336.222656 605.816406 336.484375 605.820313 336.816406 C 605.816406 337.207031 605.777344 337.523438 605.699219 337.761719 C 605.617188 338.003906 605.496094 338.1875 605.339844 338.316406 C 605.179688 338.449219 604.976563 338.511719 604.734375 338.511719 C 604.410156 338.511719 604.160156 338.398438 603.980469 338.167969 C 603.757813 337.890625 603.648438 337.441406 603.648438 336.816406 Z M 604.070313 336.816406 C 604.070313 337.363281 604.132813 337.726563 604.261719 337.90625 C 604.386719 338.085938 604.546875 338.179688 604.734375 338.175781 C 604.921875 338.179688 605.078125 338.085938 605.207031 337.90625 C 605.335938 337.726563 605.398438 337.363281 605.398438 336.816406 C 605.398438 336.269531 605.335938 335.90625 605.207031 335.722656 C 605.078125 335.546875 604.917969 335.453125 604.730469 335.453125 C 604.539063 335.453125 604.390625 335.535156 604.28125 335.691406 C 604.140625 335.894531 604.070313 336.269531 604.070313 336.816406 Z M 604.070313 336.816406 "/>
<path style=" stroke:none;fill-rule:nonzero;fill:rgb(0%,0%,54.509804%);fill-opacity:1;" d="M 606.4375 336.816406 C 606.4375 336.421875 606.476563 336.105469 606.558594 335.863281 C 606.640625 335.628906 606.761719 335.441406 606.921875 335.3125 C 607.082031 335.183594 607.28125 335.117188 607.523438 335.113281 C 607.699219 335.117188 607.855469 335.152344 607.992188 335.222656 C 608.128906 335.296875 608.238281 335.398438 608.328125 335.535156 C 608.414063 335.671875 608.484375 335.835938 608.535156 336.027344 C 608.582031 336.222656 608.605469 336.484375 608.609375 336.816406 C 608.605469 337.207031 608.566406 337.523438 608.488281 337.761719 C 608.40625 338.003906 608.289063 338.1875 608.128906 338.316406 C 607.96875 338.449219 607.765625 338.511719 607.523438 338.511719 C 607.203125 338.511719 606.949219 338.398438 606.769531 338.167969 C 606.546875 337.890625 606.4375 337.441406 606.4375 336.816406 Z M 606.859375 336.816406 C 606.859375 337.363281 606.921875 337.726563 607.050781 337.90625 C 607.179688 338.085938 607.335938 338.179688 607.523438 338.175781 C 607.710938 338.179688 607.867188 338.085938 607.996094 337.90625 C 608.125 337.726563 608.1875 337.363281 608.1875 336.816406 C 608.1875 336.269531 608.125 335.90625 607.996094 335.722656 C 607.867188 335.546875 607.707031 335.453125 607.519531 335.453125 C 607.332031 335.453125 607.179688 335.535156 607.070313 335.691406 C 606.929688 335.894531 606.859375 336.269531 606.859375 336.816406 Z M 606.859375 336.816406 "/>
<path style=" stroke:none;fill-rule:nonzero;fill:rgb(0%,0%,54.509804%);fill-opacity:1;" d="M 597.238281 478.859375 L 597.191406 478.476563 C 597.277344 478.5 597.355469 478.507813 597.421875 478.511719 C 597.515625 478.507813 597.585938 478.496094 597.644531 478.464844 C 597.695313 478.433594 597.742188 478.394531 597.777344 478.339844 C 597.800781 478.296875 597.84375 478.195313 597.902344 478.035156 C 597.910156 478.011719 597.917969 477.976563 597.9375 477.933594 L 597.023438 475.519531 L 597.464844 475.519531 L 597.964844 476.914063 C 598.027344 477.09375 598.085938 477.28125 598.140625 477.472656 C 598.183594 477.289063 598.242188 477.105469 598.308594 476.925781 L 598.820313 475.519531 L 599.234375 475.519531 L 598.3125 477.96875 C 598.214844 478.234375 598.136719 478.417969 598.085938 478.519531 C 598.011719 478.652344 597.925781 478.75 597.835938 478.816406 C 597.738281 478.875 597.628906 478.90625 597.5 478.910156 C 597.421875 478.90625 597.332031 478.890625 597.238281 478.859375 Z M 597.238281 478.859375 "/>
<path style=" stroke:none;fill-rule:nonzero;fill:rgb(0%,0%,54.509804%);fill-opacity:1;" d="M 602.980469 475.417969 L 602.574219 475.449219 C 602.539063 475.289063 602.484375 475.171875 602.417969 475.097656 C 602.308594 474.984375 602.171875 474.925781 602.011719 474.925781 C 601.878906 474.925781 601.765625 474.964844 601.667969 475.035156 C 601.535156 475.128906 601.433594 475.265625 601.363281 475.445313 C 601.285156 475.625 601.25 475.882813 601.25 476.214844 C 601.34375 476.066406 601.464844 475.953125 601.609375 475.878906 C 601.75 475.808594 601.898438 475.773438 602.054688 475.769531 C 602.328125 475.773438 602.558594 475.871094 602.753906 476.074219 C 602.941406 476.273438 603.039063 476.53125 603.039063 476.851563 C 603.039063 477.058594 602.992188 477.253906 602.90625 477.433594 C 602.8125 477.613281 602.691406 477.75 602.535156 477.84375 C 602.375 477.941406 602.195313 477.984375 601.996094 477.988281 C 601.65625 477.984375 601.378906 477.863281 601.164063 477.613281 C 600.949219 477.363281 600.839844 476.949219 600.839844 476.371094 C 600.839844 475.730469 600.960938 475.261719 601.199219 474.96875 C 601.40625 474.71875 601.683594 474.589844 602.035156 474.589844 C 602.296875 474.589844 602.511719 474.664063 602.679688 474.808594 C 602.84375 474.957031 602.945313 475.160156 602.980469 475.417969 Z M 601.3125 476.851563 C 601.308594 476.992188 601.339844 477.128906 601.402344 477.257813 C 601.460938 477.386719 601.542969 477.484375 601.652344 477.550781 C 601.757813 477.621094 601.871094 477.652344 601.992188 477.652344 C 602.160156 477.652344 602.308594 477.582031 602.433594 477.441406 C 602.558594 477.304688 602.621094 477.113281 602.621094 476.875 C 602.621094 476.644531 602.558594 476.464844 602.4375 476.332031 C 602.3125 476.199219 602.160156 476.132813 601.976563 476.132813 C 601.789063 476.132813 601.632813 476.199219 601.503906 476.332031 C 601.375 476.464844 601.308594 476.636719 601.3125 476.851563 Z M 601.3125 476.851563 "/>
<path style=" stroke:none;fill-rule:nonzero;fill:rgb(0%,0%,54.509804%);fill-opacity:1;" d="M 603.648438 476.289063 C 603.648438 475.894531 603.6875 475.582031 603.769531 475.339844 C 603.851563 475.101563 603.972656 474.914063 604.132813 474.785156 C 604.292969 474.65625 604.492188 474.589844 604.734375 474.589844 C 604.910156 474.589844 605.066406 474.628906 605.203125 474.699219 C 605.339844 474.769531 605.449219 474.875 605.539063 475.007813 C 605.625 475.144531 605.695313 475.308594 605.746094 475.503906 C 605.792969 475.699219 605.816406 475.960938 605.820313 476.289063 C 605.816406 476.679688 605.777344 476.996094 605.699219 477.234375 C 605.617188 477.476563 605.496094 477.660156 605.339844 477.789063 C 605.179688 477.921875 604.976563 477.984375 604.734375 477.988281 C 604.410156 477.984375 604.160156 477.871094 603.980469 477.640625 C 603.757813 477.367188 603.648438 476.914063 603.648438 476.289063 Z M 604.070313 476.289063 C 604.070313 476.835938 604.132813 477.199219 604.261719 477.378906 C 604.386719 477.5625 604.546875 477.652344 604.734375 477.652344 C 604.921875 477.652344 605.078125 477.5625 605.207031 477.378906 C 605.335938 477.199219 605.398438 476.835938 605.398438 476.289063 C 605.398438 475.742188 605.335938 475.378906 605.207031 475.195313 C 605.078125 475.019531 604.917969 474.929688 604.730469 474.925781 C 604.539063 474.929688 604.390625 475.007813 604.28125 475.167969 C 604.140625 475.371094 604.070313 475.742188 604.070313 476.289063 Z M 604.070313 476.289063 "/>
<path style=" stroke:none;fill-rule:nonzero;fill:rgb(0%,0%,54.509804%);fill-opacity:1;" d="M 606.4375 476.289063 C 606.4375 475.894531 606.476563 475.582031 606.558594 475.339844 C 606.640625 475.101563 606.761719 474.914063 606.921875 474.785156 C 607.082031 474.65625 607.28125 474.589844 607.523438 474.589844 C 607.699219 474.589844 607.855469 474.628906 607.992188 474.699219 C 608.128906 474.769531 608.238281 474.875 608.328125 475.007813 C 608.414063 475.144531 608.484375 475.308594 608.535156 475.503906 C 608.582031 475.699219 608.605469 475.960938 608.609375 476.289063 C 608.605469 476.679688 608.566406 476.996094 608.488281 477.234375 C 608.40625 477.476563 608.289063 477.660156 608.128906 477.789063 C 607.96875 477.921875 607.765625 477.984375 607.523438 477.988281 C 607.203125 477.984375 606.949219 477.871094 606.769531 477.640625 C 606.546875 477.367188 606.4375 476.914063 606.4375 476.289063 Z M 606.859375 476.289063 C 606.859375 476.835938 606.921875 477.199219 607.050781 477.378906 C 607.179688 477.5625 607.335938 477.652344 607.523438 477.652344 C 607.710938 477.652344 607.867188 477.5625 607.996094 477.378906 C 608.125 477.199219 608.1875 476.835938 608.1875 476.289063 C 608.1875 475.742188 608.125 475.378906 607.996094 475.195313 C 607.867188 475.019531 607.707031 474.929688 607.519531 474.925781 C 607.332031 474.929688 607.179688 475.007813 607.070313 475.167969 C 606.929688 475.371094 606.859375 475.742188 606.859375 476.289063 Z M 606.859375 476.289063 "/>
<path style=" stroke:none;fill-rule:nonzero;fill:rgb(0%,0%,54.509804%);fill-opacity:1;" d="M 597.238281 618.332031 L 597.191406 617.949219 C 597.277344 617.972656 597.355469 617.984375 597.421875 617.984375 C 597.515625 617.984375 597.585938 617.96875 597.644531 617.941406 C 597.695313 617.910156 597.742188 617.867188 597.777344 617.8125 C 597.800781 617.769531 597.84375 617.667969 597.902344 617.507813 C 597.910156 617.484375 597.917969 617.453125 597.9375 617.40625 L 597.023438 614.992188 L 597.464844 614.992188 L 597.964844 616.390625 C 598.027344 616.570313 598.085938 616.757813 598.140625 616.949219 C 598.183594 616.761719 598.242188 616.578125 598.308594 616.398438 L 598.820313 614.992188 L 599.234375 614.992188 L 598.3125 617.445313 C 598.214844 617.707031 598.136719 617.890625 598.085938 617.992188 C 598.011719 618.128906 597.925781 618.226563 597.835938 618.289063 C 597.738281 618.351563 597.628906 618.382813 597.5 618.382813 C 597.421875 618.382813 597.332031 618.363281 597.238281 618.332031 Z M 597.238281 618.332031 "/>
<path style=" stroke:none;fill-rule:nonzero;fill:rgb(0%,0%,54.509804%);fill-opacity:1;" d="M 600.921875 616.632813 L 601.3125 616.597656 C 601.347656 616.785156 601.410156 616.917969 601.503906 617 C 601.597656 617.085938 601.71875 617.125 601.867188 617.125 C 601.992188 617.125 602.101563 617.097656 602.195313 617.039063 C 602.289063 616.980469 602.367188 616.90625 602.429688 616.808594 C 602.488281 616.710938 602.539063 616.582031 602.582031 616.417969 C 602.621094 616.253906 602.640625 616.089844 602.644531 615.917969 C 602.640625 615.902344 602.640625 615.878906 602.640625 615.839844 C 602.558594 615.96875 602.445313 616.074219 602.304688 616.15625 C 602.160156 616.238281 602.007813 616.277344 601.847656 616.277344 C 601.566406 616.277344 601.332031 616.175781 601.144531 615.976563 C 600.953125 615.777344 600.859375 615.515625 600.859375 615.1875 C 600.859375 614.847656 600.957031 614.578125 601.15625 614.371094 C 601.355469 614.167969 601.605469 614.066406 601.90625 614.0625 C 602.121094 614.066406 602.320313 614.121094 602.5 614.238281 C 602.679688 614.355469 602.816406 614.523438 602.910156 614.738281 C 603 614.953125 603.046875 615.265625 603.046875 615.671875 C 603.046875 616.097656 603 616.4375 602.910156 616.6875 C 602.816406 616.941406 602.679688 617.132813 602.496094 617.265625 C 602.316406 617.394531 602.101563 617.457031 601.855469 617.460938 C 601.59375 617.457031 601.382813 617.386719 601.21875 617.246094 C 601.054688 617.101563 600.953125 616.898438 600.921875 616.632813 Z M 602.59375 615.167969 C 602.59375 614.933594 602.53125 614.746094 602.40625 614.609375 C 602.28125 614.472656 602.132813 614.402344 601.957031 614.402344 C 601.773438 614.402344 601.613281 614.476563 601.484375 614.625 C 601.347656 614.773438 601.277344 614.964844 601.28125 615.199219 C 601.277344 615.414063 601.34375 615.585938 601.472656 615.71875 C 601.597656 615.851563 601.757813 615.917969 601.945313 615.914063 C 602.132813 615.917969 602.289063 615.851563 602.410156 615.71875 C 602.53125 615.585938 602.59375 615.402344 602.59375 615.167969 Z M 602.59375 615.167969 "/>
<path style=" stroke:none;fill-rule:nonzero;fill:rgb(0%,0%,54.509804%);fill-opacity:1;" d="M 603.648438 615.761719 C 603.648438 615.371094 603.6875 615.054688 603.769531 614.8125 C 603.851563 614.574219 603.972656 614.390625 604.132813 614.257813 C 604.292969 614.128906 604.492188 614.066406 604.734375 614.0625 C 604.910156 614.066406 605.066406 614.101563 605.203125 614.171875 C 605.339844 614.246094 605.449219 614.347656 605.539063 614.480469 C 605.625 614.617188 605.695313 614.785156 605.746094 614.976563 C 605.792969 615.171875 605.816406 615.433594 605.820313 615.761719 C 605.816406 616.15625 605.777344 616.472656 605.699219 616.707031 C 605.617188 616.949219 605.496094 617.136719 605.339844 617.265625 C 605.179688 617.394531 604.976563 617.457031 604.734375 617.460938 C 604.410156 617.457031 604.160156 617.34375 603.980469 617.117188 C 603.757813 616.839844 603.648438 616.390625 603.648438 615.761719 Z M 604.070313 615.761719 C 604.070313 616.3125 604.132813 616.675781 604.261719 616.855469 C 604.386719 617.035156 604.546875 617.125 604.734375 617.125 C 604.921875 617.125 605.078125 617.035156 605.207031 616.851563 C 605.335938 616.671875 605.398438 616.308594 605.398438 615.761719 C 605.398438 615.214844 605.335938 614.851563 605.207031 614.671875 C 605.078125 614.492188 604.917969 614.402344 604.730469 614.402344 C 604.539063 614.402344 604.390625 614.480469 604.28125 614.640625 C 604.140625 614.84375 604.070313 615.21875 604.070313 615.761719 Z M 604.070313 615.761719 "/>
<path style=" stroke:none;fill-rule:nonzero;fill:rgb(0%,0%,54.509804%);fill-opacity:1;" d="M 606.4375 615.761719 C 606.4375 615.371094 606.476563 615.054688 606.558594 614.8125 C 606.640625 614.574219 606.761719 614.390625 606.921875 614.257813 C 607.082031 614.128906 607.28125 614.066406 607.523438 614.0625 C 607.699219 614.066406 607.855469 614.101563 607.992188 614.171875 C 608.128906 614.246094 608.238281 614.347656 608.328125 614.480469 C 608.414063 614.617188 608.484375 614.785156 608.535156 614.976563 C 608.582031 615.171875 608.605469 615.433594 608.609375 615.761719 C 608.605469 616.15625 608.566406 616.472656 608.488281 616.707031 C 608.40625 616.949219 608.289063 617.136719 608.128906 617.265625 C 607.96875 617.394531 607.765625 617.457031 607.523438 617.460938 C 607.203125 617.457031 606.949219 617.34375 606.769531 617.117188 C 606.546875 616.839844 606.4375 616.390625 606.4375 615.761719 Z M 606.859375 615.761719 C 606.859375 616.3125 606.921875 616.675781 607.050781 616.855469 C 607.179688 617.035156 607.335938 617.125 607.523438 617.125 C 607.710938 617.125 607.867188 617.035156 607.996094 616.851563 C 608.125 616.671875 608.1875 616.308594 608.1875 615.761719 C 608.1875 615.214844 608.125 614.851563 607.996094 614.671875 C 607.867188 614.492188 607.707031 614.402344 607.519531 614.402344 C 607.332031 614.402344 607.179688 614.480469 607.070313 614.640625 C 606.929688 614.84375 606.859375 615.21875 606.859375 615.761719 Z M 606.859375 615.761719 "/>
<path style=" stroke:none;fill-rule:nonzero;fill:rgb(0%,0%,54.509804%);fill-opacity:1;" d="M 597.238281 757.804688 L 597.191406 757.421875 C 597.277344 757.445313 597.355469 757.457031 597.421875 757.460938 C 597.515625 757.457031 597.585938 757.441406 597.644531 757.414063 C 597.695313 757.382813 597.742188 757.339844 597.777344 757.285156 C 597.800781 757.246094 597.84375 757.144531 597.902344 756.984375 C 597.910156 756.960938 597.917969 756.925781 597.9375 756.882813 L 597.023438 754.464844 L 597.464844 754.464844 L 597.964844 755.863281 C 598.027344 756.042969 598.085938 756.230469 598.140625 756.421875 C 598.183594 756.238281 598.242188 756.054688 598.308594 755.871094 L 598.820313 754.464844 L 599.234375 754.464844 L 598.3125 756.917969 C 598.214844 757.179688 598.136719 757.363281 598.085938 757.464844 C 598.011719 757.601563 597.925781 757.699219 597.835938 757.761719 C 597.738281 757.824219 597.628906 757.855469 597.5 757.855469 C 597.421875 757.855469 597.332031 757.839844 597.238281 757.804688 Z M 597.238281 757.804688 "/>
<path style=" stroke:none;fill-rule:nonzero;fill:rgb(0%,0%,54.509804%);fill-opacity:1;" d="M 602.398438 756.878906 L 601.992188 756.878906 L 601.992188 754.273438 C 601.894531 754.367188 601.765625 754.460938 601.605469 754.558594 C 601.445313 754.652344 601.300781 754.722656 601.175781 754.769531 L 601.175781 754.371094 C 601.402344 754.265625 601.601563 754.136719 601.773438 753.980469 C 601.945313 753.832031 602.0625 753.683594 602.136719 753.535156 L 602.398438 753.535156 Z M 602.398438 756.878906 "/>
<path style=" stroke:none;fill-rule:nonzero;fill:rgb(0%,0%,54.509804%);fill-opacity:1;" d="M 605.796875 756.484375 L 605.796875 756.878906 L 603.597656 756.878906 C 603.59375 756.78125 603.609375 756.6875 603.644531 756.59375 C 603.699219 756.445313 603.789063 756.300781 603.914063 756.152344 C 604.039063 756.007813 604.214844 755.839844 604.449219 755.648438 C 604.808594 755.351563 605.054688 755.117188 605.183594 754.945313 C 605.308594 754.769531 605.371094 754.605469 605.371094 754.453125 C 605.371094 754.289063 605.3125 754.152344 605.199219 754.042969 C 605.082031 753.933594 604.929688 753.875 604.746094 753.875 C 604.546875 753.875 604.390625 753.9375 604.273438 754.050781 C 604.152344 754.171875 604.09375 754.335938 604.09375 754.542969 L 603.675781 754.5 C 603.703125 754.1875 603.8125 753.945313 604 753.785156 C 604.183594 753.621094 604.4375 753.539063 604.753906 753.535156 C 605.074219 753.539063 605.324219 753.628906 605.511719 753.800781 C 605.699219 753.980469 605.789063 754.199219 605.792969 754.460938 C 605.789063 754.59375 605.761719 754.726563 605.710938 754.851563 C 605.652344 754.984375 605.566406 755.117188 605.441406 755.261719 C 605.3125 755.402344 605.101563 755.597656 604.808594 755.84375 C 604.5625 756.050781 604.40625 756.191406 604.335938 756.265625 C 604.265625 756.339844 604.210938 756.410156 604.164063 756.484375 Z M 605.796875 756.484375 "/>
<path style=" stroke:none;fill-rule:nonzero;fill:rgb(0%,0%,54.509804%);fill-opacity:1;" d="M 606.4375 755.238281 C 606.4375 754.84375 606.476563 754.527344 606.558594 754.285156 C 606.640625 754.046875 606.761719 753.863281 606.921875 753.734375 C 607.082031 753.605469 607.28125 753.539063 607.523438 753.535156 C 607.699219 753.539063 607.855469 753.574219 607.992188 753.644531 C 608.128906 753.71875 608.238281 753.820313 608.328125 753.957031 C 608.414063 754.09375 608.484375 754.257813 608.535156 754.449219 C 608.582031 754.644531 608.605469 754.90625 608.609375 755.238281 C 608.605469 755.628906 608.566406 755.945313 608.488281 756.183594 C 608.40625 756.425781 608.289063 756.609375 608.128906 756.738281 C 607.96875 756.871094 607.765625 756.933594 607.523438 756.933594 C 607.203125 756.933594 606.949219 756.816406 606.769531 756.589844 C 606.546875 756.3125 606.4375 755.863281 606.4375 755.238281 Z M 606.859375 755.238281 C 606.859375 755.785156 606.921875 756.148438 607.050781 756.328125 C 607.179688 756.507813 607.335938 756.601563 607.523438 756.597656 C 607.710938 756.601563 607.867188 756.507813 607.996094 756.324219 C 608.125 756.144531 608.1875 755.78125 608.1875 755.238281 C 608.1875 754.691406 608.125 754.328125 607.996094 754.144531 C 607.867188 753.96875 607.707031 753.875 607.519531 753.875 C 607.332031 753.875 607.179688 753.957031 607.070313 754.113281 C 606.929688 754.316406 606.859375 754.691406 606.859375 755.238281 Z M 606.859375 755.238281 "/>
<path style=" stroke:none;fill-rule:nonzero;fill:rgb(0%,0%,54.509804%);fill-opacity:1;" d="M 609.226563 755.238281 C 609.226563 754.84375 609.265625 754.527344 609.351563 754.285156 C 609.429688 754.046875 609.550781 753.863281 609.710938 753.734375 C 609.871094 753.605469 610.070313 753.539063 610.3125 753.535156 C 610.492188 753.539063 610.644531 753.574219 610.78125 753.644531 C 610.917969 753.71875 611.03125 753.820313 611.117188 753.957031 C 611.203125 754.09375 611.273438 754.257813 611.324219 754.449219 C 611.371094 754.644531 611.398438 754.90625 611.398438 755.238281 C 611.398438 755.628906 611.355469 755.945313 611.277344 756.183594 C 611.195313 756.425781 611.078125 756.609375 610.917969 756.738281 C 610.757813 756.871094 610.554688 756.933594 610.3125 756.933594 C 609.992188 756.933594 609.742188 756.816406 609.558594 756.589844 C 609.335938 756.3125 609.226563 755.863281 609.226563 755.238281 Z M 609.648438 755.238281 C 609.648438 755.785156 609.710938 756.148438 609.839844 756.328125 C 609.96875 756.507813 610.125 756.601563 610.3125 756.597656 C 610.5 756.601563 610.65625 756.507813 610.785156 756.324219 C 610.914063 756.144531 610.976563 755.78125 610.980469 755.238281 C 610.976563 754.691406 610.914063 754.328125 610.785156 754.144531 C 610.65625 753.96875 610.496094 753.875 610.308594 753.875 C 610.121094 753.875 609.972656 753.957031 609.859375 754.113281 C 609.71875 754.316406 609.648438 754.691406 609.648438 755.238281 Z M 609.648438 755.238281 "/>
<path style="fill:none;stroke-width:8.382975;stroke-linecap:round;stroke-linejoin:miter;stroke:rgb(64.705882%,16.470588%,16.470588%);stroke-opacity:1;stroke-dasharray:8.382975,41.914879;stroke-miterlimit:10;" d="M 0.00288823 1200.001448 L -326.08298 1200.001448 C -349.230791 1200.001448 -368.001104 1181.231136 -368.001104 1158.083324 L -368.001104 -334.089304 C -368.001104 -357.237115 -349.230791 -375.999026 -326.08298 -375.999026 L 326.088756 -375.999026 C 349.236568 -375.999026 367.998478 -357.237115 367.998478 -334.089304 L 367.998478 1158.083324 C 367.998478 1181.231136 349.236568 1200.001448 326.088756 1200.001448 Z M 0.00288823 1200.001448 " transform="matrix(0.464913,0,0,0.464913,596.947876,198.98262)"/>
<path style=" stroke:none;fill-rule:nonzero;fill:rgb(87.058824%,72.156863%,52.941176%);fill-opacity:0.65098;" d="M 132.035156 756.878906 L 132.035156 198.984375 L 596.949219 198.984375 L 596.949219 756.878906 Z M 132.035156 756.878906 "/>
<path style="fill:none;stroke-width:8.603766;stroke-linecap:round;stroke-linejoin:miter;stroke:rgb(64.705882%,16.470588%,16.470588%);stroke-opacity:1;stroke-dasharray:8.603766,43.018829;stroke-miterlimit:10;" d="M -316.000448 1200.001448 L -956.980574 1200.001448 C -980.741739 1200.001448 -999.999374 1180.735411 -999.999374 1156.982648 L -999.999374 -332.980225 C -999.999374 -356.741391 -980.741739 -375.999026 -956.980574 -375.999026 L 324.979678 -375.999026 C 348.740843 -375.999026 367.998478 -356.741391 367.998478 -332.980225 L 367.998478 1156.982648 C 367.998478 1180.735411 348.740843 1200.001448 324.979678 1200.001448 Z M -316.000448 1200.001448 " transform="matrix(0.464913,0,0,0.464913,596.947876,198.98262)"/>
</g>
</svg>
